PathFileType	4	(X/Y/Z)	 s11c0302.trc
DataRate	CameraRate	NumFrames	NumMarkers	Units	OrigDataRate	OrigDataStartFrame	OrigNumFrames
200	200	4	48	mm	200	1	2000
Frame#	Time	racr			lacr			c7			jug			rlel			rdr			llel			ldr			s2			lic			ric			lasi			rasi			rpsi			lpsi			rgt			lgt			rth1			rth2			rth3			rth4			rlfc			rmfc			rsh1			rsh2			rsh3			rsh4			rlmal			rcal			rtoe			rmt5			lth1			lth2			lth4			lth3			llfc			lmfc			llmal			lcal			lmt5			lsh1			lsh2			lsh3			lsh4			ltoe			SBIKE			LBIKE			RBIKE			
		X1	Y1	Z1	X2	Y2	Z2	X3	Y3	Z3	X4	Y4	Z4	X5	Y5	Z5	X6	Y6	Z6	X7	Y7	Z7	X8	Y8	Z8	X9	Y9	Z9	X10	Y10	Z10	X11	Y11	Z11	X12	Y12	Z12	X13	Y13	Z13	X14	Y14	Z14	X15	Y15	Z15	X16	Y16	Z16	X17	Y17	Z17	X18	Y18	Z18	X19	Y19	Z19	X20	Y20	Z20	X21	Y21	Z21	X22	Y22	Z22	X23	Y23	Z23	X24	Y24	Z24	X25	Y25	Z25	X26	Y26	Z26	X27	Y27	Z27	X28	Y28	Z28	X29	Y29	Z29	X30	Y30	Z30	X31	Y31	Z31	X32	Y32	Z32	X33	Y33	Z33	X34	Y34	Z34	X35	Y35	Z35	X36	Y36	Z36	X37	Y37	Z37	X38	Y38	Z38	X39	Y39	Z39	X40	Y40	Z40	X41	Y41	Z41	X42	Y42	Z42	X43	Y43	Z43	X44	Y44	Z44	X45	Y45	Z45	X46	Y46	Z46	X47	Y47	Z47	X48	Y48	Z48	
1	0.0050	448.267946	1380.158810	-73.695090	457.231588	1417.823888	-397.085314	381.161569	1507.723051	-232.376716	408.547094	1332.407546	-244.583333	577.629893	1149.712865	-20.147700	790.265163	933.654127	-49.798694	557.280612	1132.965823	-452.491986	805.591166	921.982602	-423.505092	-164.416428	1247.455458	-250.402818	55.430705	1261.482077	-434.347005	57.613433	1234.945156	-47.561164	76.091534	1174.640564	-412.611899	76.931920	1164.738203	-80.715804	-115.666510	1317.869834	-192.467853	-120.592247	1319.569457	-285.474006	-8.666578	1092.866646	-32.561426	-31.574657	1130.681069	-461.118905	83.720411	984.860060	-32.221462	161.051439	932.995603	-42.888814	198.853544	855.384006	-59.576359	188.431198	957.738423	-50.800030	260.985794	769.496815	-76.027777	256.344506	753.238083	-202.452361	170.114675	635.338511	-65.471505	139.738467	554.406106	-85.111641	74.218985	497.076273	-87.658340	160.827201	545.028213	-117.776809	-15.273520	396.341190	-103.146085	-81.705806	389.042811	-152.665146	190.959895	303.236777	-137.753888	115.403265	290.218928	-70.965521	89.897522	1037.613395	-476.462469	168.469008	1004.211442	-472.726150	191.722436	1030.909638	-463.555074	220.949980	930.709598	-468.210564	323.153554	834.815343	-442.167521	338.099090	831.270641	-317.083321	259.871547	406.555591	-409.947172	218.452179	345.367049	-372.749121	426.234970	360.135807	-440.148762	300.433439	708.122920	-457.712191	315.633409	624.513276	-441.582172	286.966373	541.978262	-435.008073	346.580631	626.093755	-419.564833	507.852565	413.896722	-370.509010	-205.240506	951.799800	-261.761091	1.143944	82.586279	-460.754756	-15.356990	81.105923	-62.490838	
2	0.0100	448.020039	1379.891979	-73.643423	456.981210	1417.657461	-396.957055	380.902562	1507.524751	-232.345679	408.211670	1332.241242	-244.431859	577.495560	1149.526886	-20.095146	790.250211	933.628438	-49.779234	557.111867	1132.882513	-452.421192	805.580006	921.974600	-423.483673	-164.562748	1247.236111	-250.389889	55.195635	1261.402855	-434.390204	57.267323	1234.856480	-47.465931	75.932188	1174.576125	-412.668156	76.642875	1164.636969	-80.601533	-115.943492	1317.699246	-192.441190	-120.847808	1319.406419	-285.374834	-8.921135	1092.777445	-32.493448	-31.831849	1130.559286	-461.100590	83.574409	984.778922	-32.140016	160.923645	932.975272	-42.773635	198.784204	855.388962	-59.449607	188.312657	957.731732	-50.627641	260.995413	769.524862	-75.898132	256.473280	753.275850	-202.351585	170.155495	635.342681	-65.414435	139.762751	554.428717	-85.052227	74.224878	497.094176	-87.640709	160.850730	545.058499	-117.704393	-15.268900	396.373148	-103.154434	-81.713498	389.103867	-152.672196	190.990190	303.231305	-137.740992	115.396355	290.250429	-70.970336	89.646758	1037.466445	-476.431634	168.271187	1004.003125	-472.735171	191.496361	1030.775965	-463.535639	220.739278	930.587341	-468.220025	323.041359	834.761703	-442.136679	337.961328	831.233839	-316.987815	259.846041	406.437572	-409.925925	218.454750	345.256250	-372.753116	426.233709	360.096294	-440.138237	300.380482	708.044511	-457.669634	315.418763	624.895344	-441.971173	286.930466	541.901479	-435.019136	346.301820	626.525270	-419.876781	507.822641	413.880870	-370.503053	-205.234585	951.780432	-261.765060	1.124014	82.675123	-460.712549	-15.283831	81.094997	-62.541316	
3	0.0150	447.714763	1379.645926	-73.674477	456.738017	1417.489111	-396.816933	380.671189	1507.281020	-232.224399	407.935941	1332.070101	-244.310955	577.318773	1149.349398	-20.002894	790.227894	933.633052	-49.785858	556.990463	1132.814101	-452.364725	805.574906	921.955716	-423.437249	-164.780825	1247.048671	-250.344981	55.018870	1261.184366	-434.171794	57.191233	1234.859575	-47.185245	75.693025	1174.340240	-412.459812	76.364434	1164.566884	-80.527027	-116.163420	1317.537864	-192.447366	-121.076720	1319.196683	-285.316342	-9.131408	1092.591358	-32.440325	-32.029285	1130.335117	-461.052171	83.428930	984.673501	-32.029344	160.807357	932.913232	-42.667695	198.719141	855.359814	-59.307051	188.189636	957.709015	-50.488006	261.028490	769.533635	-75.784281	256.662287	753.222580	-202.105113	170.181078	635.362107	-65.331554	139.792358	554.426130	-85.010960	74.238980	497.129353	-87.603032	160.900336	545.097569	-117.650393	-15.260341	396.426137	-103.146816	-81.719283	389.171688	-152.658974	190.995534	303.239367	-137.733852	115.383049	290.292669	-70.964498	89.474065	1037.293600	-476.367902	168.099608	1003.832699	-472.667121	191.322420	1030.558244	-463.518249	220.567072	930.455864	-468.193116	322.971284	834.663656	-442.119091	337.857377	831.181282	-316.907621	259.856628	406.305935	-409.909246	218.465983	345.084953	-372.724900	426.235442	360.055986	-440.128077	300.337549	707.953178	-457.641012	315.378618	624.818037	-441.947902	286.887519	541.791001	-435.015032	346.271599	626.395843	-419.792312	507.794317	413.859019	-370.502169	-205.232632	951.775098	-261.763550	1.121316	82.666569	-460.704298	-15.284413	81.111254	-62.537777	
4	0.0200	447.446229	1379.428176	-73.670129	456.497535	1417.302971	-396.690417	380.458129	1506.985788	-232.173291	407.604027	1331.916259	-244.216203	577.148733	1149.166235	-19.889548	790.273943	933.552987	-49.694758	556.896366	1132.709964	-452.280540	805.704259	922.381168	-424.059303	-164.992780	1246.860481	-250.299129	54.756383	1261.016146	-434.338244	56.819653	1234.751865	-47.093199	75.624176	1174.234829	-412.560468	75.914342	1164.524760	-80.523094	-116.407744	1317.305528	-192.366552	-120.166572	1317.672623	-286.528149	-9.355362	1092.461356	-32.339369	-32.182765	1130.160533	-460.996423	83.553032	984.861922	-32.415408	160.724234	932.865839	-42.552879	198.681400	855.329446	-59.182844	187.845979	957.566678	-50.608215	260.893869	769.561966	-75.657490	256.516667	753.357720	-202.346797	170.234363	635.355039	-65.254223	139.999475	554.459117	-84.799501	74.239412	497.155857	-87.577883	160.796953	544.887379	-117.540683	-15.281490	396.507360	-103.123053	-81.710902	389.218379	-152.671384	190.959421	303.296461	-137.710224	115.369242	290.330712	-70.953846	89.316148	1036.921438	-476.294022	167.967523	1003.677564	-472.634624	191.155228	1030.452270	-463.490301	220.450880	930.271135	-468.126225	322.929576	834.518993	-442.066832	337.757542	831.093525	-316.838578	259.828396	406.179707	-409.931282	218.456405	344.974960	-372.731158	426.222959	360.012850	-440.137733	300.301540	707.837124	-457.582013	315.545508	624.469446	-441.600818	286.847699	541.639955	-434.984759	346.489238	625.828502	-419.733993	507.765536	413.845951	-370.494160	-205.223385	951.768153	-261.743421	1.133090	82.668672	-460.704465	-15.298993	81.070206	-62.549962	
